<svg xmlns="http://www.w3.org/2000/svg" viewBox="0 0 48 48"><g data-name="Tow Truck"><path fill="#f8f9f9" d="M23 23c0-1.19.1-2.14-.88-3.12A3 3 0 0 0 20 19l15.25-9A2 2 0 0 0 37 13Z"/><circle cx="37" cy="11" r="2" fill="#bec6c6"/><path fill="#f8f9f9" d="M17 27h28v6H17z"/><path fill="#bec6c6" d="M23 27h-6v-5a3 3 0 0 1 6 0ZM21 33h-4l3-6h4l-3 6zM28 33h-4l3-6h4l-3 6zM35 33h-4l3-6h4l-3 6zM42 33h-4l3-6h4l-3 6z"/><path fill="#f8f9f9" d="M2 33h44v4H2zM17 33H3V22.61a2 2 0 0 1 .34-1.11l5.07-7.61a2 2 0 0 1 1.66-.89H17Z"/><path fill="#bec6c6" d="M13 28h-2a1 1 0 0 1 0-2h2a1 1 0 0 1 0 2zm-8 2H3a1 1 0 0 1 0-2h2a1 1 0 0 1 0 2z"/><path fill="#6457ff" d="M14 17v6a1 1 0 0 1-1 1H3v-1.39c0-.8 0-.53 4-6.61h6a1 1 0 0 1 1 1Z"/><circle cx="10" cy="35" r="4" fill="#bec6c6"/><circle cx="37" cy="35" r="4" fill="#bec6c6"/><circle cx="10" cy="35" r="1" fill="#f8f9f9"/><circle cx="37" cy="35" r="1" fill="#f8f9f9"/><circle cx="20" cy="22" r="1" fill="#f8f9f9"/><path fill="#414141" d="M46 32v-5a1 1 0 0 0-1-1H24v-2.49l12-8.57V18a1 1 0 0 0 1 1 1 1 0 0 1 .25 2 1 1 0 0 1-.75-.1 1 1 0 0 0-1.37.36 1 1 0 0 0 .37 1.37 3 3 0 1 0 2.5-5.46v-3.35a3 3 0 1 0-3.47-4.53C19.21 18.3 19.8 18 19.7 18a4 4 0 0 0-1.7.53V13a1 1 0 0 0-1-1h-6.93a3 3 0 0 0-2.5 1.34l-5.07 7.6a3 3 0 0 0-.5 1.67V32a1 1 0 0 0-1 1v4a1 1 0 0 0 1 1h4a5 5 0 0 0 8 0h19a5 5 0 0 0 8 0h5a1 1 0 0 0 1-1v-4a1 1 0 0 0-1-1Zm-2 0h-3a5 5 0 0 0-8 0H18v-4h26Zm-9-18.79-11.1 7.92a4 4 0 0 0-1.54-2.36l11.77-6.92a2.79 2.79 0 0 0 .87 1.36ZM37 10a1 1 0 1 1-1 1 1 1 0 0 1 1-1ZM20 20a2 2 0 0 1 2 2v4h-4v-4a2 2 0 0 1 2-2ZM4 22.61c0-.44-.23 0 5.24-8.16a1 1 0 0 1 .83-.45H16v18h-2a5 5 0 0 0-8 0H4ZM3 36v-2h2.1a5 5 0 0 0 0 2Zm4.18 0a2.87 2.87 0 0 1 0-2 3 3 0 0 1 5.64 0 2.87 2.87 0 0 1 0 2 3 3 0 0 1-5.64 0Zm7.72 0a5 5 0 0 0 0-2h17.2a5 5 0 0 0 0 2Zm19.28 0a2.87 2.87 0 0 1 0-2 3 3 0 0 1 5.64 0 2.87 2.87 0 0 1 0 2 3 3 0 0 1-5.64 0ZM45 36h-3.1a5 5 0 0 0 0-2H45Z"/></g></svg>