<?xml version="1.0" encoding="UTF-8" standalone="no"?><svg xmlns="http://www.w3.org/2000/svg" viewBox="0 0 64 64"><defs><style>.cls-1,.cls-4{fill:none;}.cls-1,.cls-2,.cls-3{stroke:#434a54;stroke-linecap:round;stroke-linejoin:round;stroke-width:2px;}.cls-2{fill:#ecf0f1;}.cls-3{fill:#f1c40f;}</style></defs><title>b_9</title><g id="katman_2" data-name="katman 2"><g id="icons"><path class="cls-1" d="M23 51v-4.56" fill="none" stroke="#434a54" stroke-linecap="round" stroke-linejoin="round" stroke-width="2px"/><path class="cls-1" d="M43.87 40.83A7.26 7.26 0 0 0 41 46.44" fill="none" stroke="#434a54" stroke-linecap="round" stroke-linejoin="round" stroke-width="2px"/><path class="cls-2" d="M35 54.46V57a2 2 0 0 1-2 2h-2a2 2 0 0 1-2-2v-2.54a4 4 0 0 0 2 .54h2a4 4 0 0 0 2-.54z" stroke="#434a54" stroke-linecap="round" stroke-linejoin="round" stroke-width="2px" fill="#ecf0f1"/><path class="cls-2" d="M37 47v4a4 4 0 0 1-4 4h-2a4 4 0 0 1-4-4v-4z" stroke="#434a54" stroke-linecap="round" stroke-linejoin="round" stroke-width="2px" fill="#ecf0f1"/><path class="cls-3" d="M47 25.82a15 15 0 0 1-5.63 11.89A11.24 11.24 0 0 0 37 46.44V47H27v-.56a10.65 10.65 0 0 0-4.08-8.5A15 15 0 1 1 47 25.82z" stroke="#434a54" stroke-linecap="round" stroke-linejoin="round" stroke-width="2px" fill="#f1c40f"/><path class="cls-1" fill="none" stroke="#434a54" stroke-linecap="round" stroke-linejoin="round" stroke-width="2px" d="M30 47V35"/><path class="cls-1" fill="none" stroke="#434a54" stroke-linecap="round" stroke-linejoin="round" stroke-width="2px" d="M34 47V35"/><path class="cls-1" fill="none" stroke="#434a54" stroke-linecap="round" stroke-linejoin="round" stroke-width="2px" d="M30 35l-6-6"/><path class="cls-1" fill="none" stroke="#434a54" stroke-linecap="round" stroke-linejoin="round" stroke-width="2px" d="M34 35l6-6"/><path class="cls-1" d="M26 15.61A11.94 11.94 0 0 1 32 14" fill="none" stroke="#434a54" stroke-linecap="round" stroke-linejoin="round" stroke-width="2px"/><path class="cls-1" d="M20 26a12 12 0 0 1 2.57-7.42" fill="none" stroke="#434a54" stroke-linecap="round" stroke-linejoin="round" stroke-width="2px"/><path class="cls-1" fill="none" stroke="#434a54" stroke-linecap="round" stroke-linejoin="round" stroke-width="2px" d="M32 8V4"/><path class="cls-1" fill="none" stroke="#434a54" stroke-linecap="round" stroke-linejoin="round" stroke-width="2px" d="M19.27 13.27l-2.83-2.83"/><path class="cls-1" fill="none" stroke="#434a54" stroke-linecap="round" stroke-linejoin="round" stroke-width="2px" d="M14 26h-4"/><path class="cls-1" fill="none" stroke="#434a54" stroke-linecap="round" stroke-linejoin="round" stroke-width="2px" d="M50 26h4"/><path class="cls-1" fill="none" stroke="#434a54" stroke-linecap="round" stroke-linejoin="round" stroke-width="2px" d="M44.73 13.27l2.83-2.83"/><path class="cls-1" fill="none" stroke="#434a54" stroke-linecap="round" stroke-linejoin="round" stroke-width="2px" d="M27 50h10"/><path class="cls-4" fill="none" d="M0 0h64v64H0z"/></g></g><metadata><rdf:RDF xmlns:rdf="http://www.w3.org/1999/02/22-rdf-syntax-ns#" xmlns:rdfs="http://www.w3.org/2000/01/rdf-schema#" xmlns:dc="http://purl.org/dc/elements/1.1/"><rdf:Description about="https://iconscout.com/legal#licenses" dc:title="b" dc:description="b" dc:publisher="Iconscout" dc:date="2017-09-06" dc:format="image/svg+xml" dc:language="en"><dc:creator><rdf:Bag><rdf:li>IconLIB</rdf:li></rdf:Bag></dc:creator></rdf:Description></rdf:RDF></metadata></svg>